# xmcd
#
# Track frame offsets:
#	150
#	20692
#	35033
#	53376
#	67378
#	82620
#	97950
#	111376
#	129504
#	138731
#
# Disc length: 2249 seconds
#
# Revision: 0
# Processed by: cddbd v1.5.1PL2 Copyright (c) Steve Scherf et al.
# Submitted via: EasyCDDAExtractor 9.1.3.1
#
DISCID=8808c70a
DTITLE=Neil Young - Harvest
DYEAR=1972
DGENRE=Blues
TTITLE0=Out On The Weekend
TTITLE1=Harvest
TTITLE2=A Man Needs A Maid
TTITLE3=Heart Of Gold
TTITLE4=Are You Ready For The Country
TTITLE5=Old Man
TTITLE6=There's A World
TTITLE7=Alabama
TTITLE8=The Needle And The Damage Done
TTITLE9=Words (Between The Lines Of Age)
EXTD=
EXTT0=
EXTT1=
EXTT2=
EXTT3=
EXTT4=
EXTT5=
EXTT6=
EXTT7=
EXTT8=
EXTT9=
PLAYORDER=
